<?xml version="1.0" encoding="utf-8"?>
<!-- Generator: Adobe Illustrator 15.0.0, SVG Export Plug-In . SVG Version: 6.00 Build 0)  -->
<!DOCTYPE svg PUBLIC "-//W3C//DTD SVG 1.1//EN" "http://www.w3.org/Graphics/SVG/1.1/DTD/svg11.dtd">
<svg version="1.1" id="Layer_1" xmlns="http://www.w3.org/2000/svg" xmlns:xlink="http://www.w3.org/1999/xlink" x="0px" y="0px"
	 width="1024px" height="608px" viewBox="0 0 1024 608" enable-background="new 0 0 1024 608" xml:space="preserve">
<g>
	<path fill="#E6E6E6" d="M40,32c-4.4,0-8,3.6-8,8v528c0,4.4,3.6,8,8,8h944c4.4,0,8-3.6,8-8V40c0-4.4-3.6-8-8-8H40z M960,536
		c0,4.4-3.6,8-8,8H72c-4.4,0-8-3.6-8-8V232c0-4.4,3.6-8,8-8h880c4.4,0,8,3.6,8,8V536z M960,184c0,4.4-3.6,8-8,8H72c-4.4,0-8-3.6-8-8
		V72c0-4.4,3.6-8,8-8h880c4.4,0,8,3.6,8,8V184z"/>
</g>
<g>
	<path fill="#CCCCCC" d="M984,416c4.4,0,8,3.6,8,8v144c0,4.4-3.6,8-8,8H40c-4.4,0-8-3.6-8-8V424c0-4.4,3.6-8,8-8h16c4.4,0,8,3.6,8,8
		v112c0,4.4,3.6,8,8,8h880c4.4,0,8-3.6,8-8V424c0-4.4,3.6-8,8-8H984z"/>
</g>
<g>
	<path fill="#B3B3B3" d="M992,552c0-4.4-3.6-8-8-8H40c-4.4,0-8,3.6-8,8v16c0,4.4,3.6,8,8,8h944c4.4,0,8-3.6,8-8V552z"/>
</g>
<g>
	<path fill="#F2F2F2" d="M984,32c4.4,0,8,3.6,8,8v80c0,4.4-3.6,8-8,8h-16c-4.4,0-8-3.6-8-8V72c0-4.4-3.6-8-8-8H72c-4.4,0-8,3.6-8,8
		v48c0,4.4-3.6,8-8,8H40c-4.4,0-8-3.6-8-8V40c0-4.4,3.6-8,8-8H984z"/>
</g>
</svg>
