<?xml version="1.0" encoding="utf-8"?>
<!-- Generator: Adobe Illustrator 15.0.0, SVG Export Plug-In . SVG Version: 6.00 Build 0)  -->
<!DOCTYPE svg PUBLIC "-//W3C//DTD SVG 1.1//EN" "http://www.w3.org/Graphics/SVG/1.1/DTD/svg11.dtd">
<svg version="1.1" id="Layer_1" xmlns="http://www.w3.org/2000/svg" xmlns:xlink="http://www.w3.org/1999/xlink" x="0px" y="0px"
	 width="128px" height="128px" viewBox="0 0 128 128" enable-background="new 0 0 128 128" xml:space="preserve">
<g>
	<polygon fill="#FFFFFF" points="34,71.5 12,69.976 12,58.525 34,57 	"/>
</g>
<g>
	<polygon fill="#FFFFFF" points="48.444,90.164 31.809,104.642 23.712,96.544 38.191,79.91 	"/>
</g>
<g>
	<polygon fill="#FFFFFF" points="71.5,94 69.976,116 58.525,116 57,94 	"/>
</g>
<g>
	<polygon fill="#FFFFFF" points="90.164,79.557 104.642,96.191 96.544,104.287 79.91,89.809 	"/>
</g>
<g>
	<polygon fill="#FFFFFF" points="93,56.5 115,58.025 115,69.476 93,71 	"/>
</g>
<g>
	<polygon fill="#FFFFFF" points="79.557,37.837 96.19,23.359 104.288,31.456 89.809,48.09 	"/>
</g>
<g>
	<polygon fill="#FFFFFF" points="56.5,35 58.025,13 69.476,13 71,35 	"/>
</g>
<g>
	<polygon fill="#FFFFFF" points="37.837,48.444 23.359,31.809 31.456,23.712 48.09,38.191 	"/>
</g>
<circle fill="none" stroke="#FFFFFF" stroke-width="14.7143" stroke-miterlimit="10" cx="64" cy="64" r="29.429"/>
</svg>
