<?xml version="1.0" encoding="utf-8"?>
<!-- Generator: Adobe Illustrator 15.0.0, SVG Export Plug-In . SVG Version: 6.00 Build 0)  -->
<!DOCTYPE svg PUBLIC "-//W3C//DTD SVG 1.1//EN" "http://www.w3.org/Graphics/SVG/1.1/DTD/svg11.dtd">
<svg version="1.1" id="Layer_1" xmlns="http://www.w3.org/2000/svg" xmlns:xlink="http://www.w3.org/1999/xlink" x="0px" y="0px"
	 width="128px" height="128px" viewBox="0.5 0.5 128 128" enable-background="new 0.5 0.5 128 128" xml:space="preserve">
<g display="none">
	<g display="inline">
		<line fill="none" stroke="#FFFFFF" stroke-width="60" stroke-miterlimit="10" x1="63.325" y1="64" x2="112" y2="64"/>
		<g>
			<polygon fill="#FFFFFF" points="70.654,9.183 70.654,118.527 16,63.859 			"/>
		</g>
	</g>
</g>
<g>
	<g>
		<g>
			<g>
				<g>
					<path fill="none" stroke="#FFFFFF" stroke-width="16" stroke-miterlimit="10" d="M20.5,40.5h28c0,0,7.501,0.5,15.5,24.5
						s16.5,23.5,16.5,23.5h24"/>
					<polyline fill="none" stroke="#FFFFFF" stroke-width="12" stroke-miterlimit="10" points="84.5,108.5 104.5,88.5 84.5,68.5 
											"/>
					<path fill="none" stroke="#FFFFFF" stroke-width="16" stroke-miterlimit="10" d="M88.5,12.5"/>
					<path fill="none" stroke="#FFFFFF" stroke-width="16" stroke-miterlimit="10" d="M88.5,116.5"/>
				</g>
			</g>
		</g>
	</g>
	<g>
		<g>
			<g>
				<g>
					<path fill="none" stroke="#FFFFFF" stroke-width="16" stroke-miterlimit="10" d="M20.5,88.5h28c0,0,7.501-0.5,15.5-24.5
						s16.5-23.5,16.5-23.5l24,0"/>
					<polyline fill="none" stroke="#FFFFFF" stroke-width="12" stroke-miterlimit="10" points="84.5,20.5 104.5,40.5 84.5,60.5 
											"/>
					<path fill="none" stroke="#FFFFFF" stroke-width="16" stroke-miterlimit="10" d="M88.5,116.5"/>
					<path fill="none" stroke="#FFFFFF" stroke-width="16" stroke-miterlimit="10" d="M88.5,12.5"/>
				</g>
			</g>
		</g>
	</g>
</g>
</svg>
